<?xml version="1.0" encoding="utf-8"?>
<!-- Generator: Adobe Illustrator 15.0.0, SVG Export Plug-In . SVG Version: 6.00 Build 0)  -->
<!DOCTYPE svg PUBLIC "-//W3C//DTD SVG 1.1//EN" "http://www.w3.org/Graphics/SVG/1.1/DTD/svg11.dtd">
<svg version="1.1" id="Layer_1" xmlns="http://www.w3.org/2000/svg" xmlns:xlink="http://www.w3.org/1999/xlink" x="0px" y="0px"
	 width="287.75px" height="78.5px" viewBox="0 0 287.75 78.5" enable-background="new 0 0 287.75 78.5" xml:space="preserve">
<g>
	<g>
		
			<rect x="28.232" y="6.403" transform="matrix(0.7071 0.7071 -0.7071 0.7071 27.0466 -23.9897)" fill="#EB0C8E" width="28.5" height="28.501"/>
		
			<rect x="6.403" y="28.231" transform="matrix(0.7071 0.7071 -0.7071 0.7071 36.0872 -2.1619)" fill="#FABA16" width="28.5" height="28.501"/>
		
			<rect x="49.676" y="28.231" transform="matrix(0.7071 0.7071 -0.7071 0.7071 48.7625 -32.7598)" fill="#3BBEEC" width="28.5" height="28.501"/>
		<path fill="#89B040" d="M31.203,66.464c0,6.229,5.05,11.279,11.278,11.279c6.229,0,11.279-5.05,11.279-11.279
			c0-6.229-5.05-11.278-11.279-11.278C36.253,55.186,31.203,60.235,31.203,66.464"/>
	</g>
	<g>
		<path d="M100.009,57.204l0.028-0.073c0.802-2.074,3.158-3.107,5.209-2.244c2.156,0.905,4.587,1.445,6.868,1.445
			c4.014,0,5.518-1.271,5.518-3.281c0-5.893-18.114,0.135-18.114-14.264c0-6.831,5.128-11.653,13.878-11.653
			c2.63,0,5.44,0.463,7.869,1.319c2.11,0.743,3.173,3.1,2.361,5.184c-0.783,2.008-3.026,3.029-5.051,2.293
			c-1.775-0.646-3.519-0.894-5.18-0.894c-3.9,0-5.573,1.474-5.573,3.349c0,6.161,18.114,0.201,18.114,14.398
			c0,6.697-5.183,11.452-14.156,11.452c-3.455,0-6.937-0.777-9.686-1.972C100.155,61.422,99.247,59.178,100.009,57.204"/>
		<path d="M157.818,43.14v20.56h-8.139v-4.486c-1.615,3.281-4.736,5.022-9.14,5.022c-7.022,0-11.204-4.688-11.204-10.916
			c0-6.362,3.735-10.782,12.876-10.782h6.911c0-4.487-2.23-7.099-6.911-7.099c-1.785,0-3.604,0.401-5.242,1.121
			c-2.016,0.886-4.366-0.04-5.232-2.065c-0.812-1.895-0.038-4.112,1.794-5.058c2.908-1.501,6.394-2.302,9.851-2.302
			C152.523,27.134,157.818,32.224,157.818,43.14 M149.123,52.314v-3.684h-5.964c-4.069,0-5.351,1.809-5.351,4.22
			c0,2.61,1.84,4.353,4.904,4.353C145.612,57.203,148.12,55.597,149.123,52.314"/>
		<polygon points="178.552,49.568 174.371,54.525 174.371,63.699 165.677,63.699 165.677,14.008 174.371,14.008 174.371,42.135 
			187.079,27.67 197.446,27.67 184.961,42.939 198.562,63.699 188.026,63.699 		"/>
		<path d="M230.387,48.631h-22.686c0.837,4.486,4.013,7.232,8.584,7.232c1.863,0,3.42-0.392,4.804-1.188
			c1.77-1.018,4.009-0.616,5.251,1.003c1.358,1.769,1.02,4.31-0.761,5.654c-2.529,1.911-5.721,2.901-9.517,2.901
			c-10.367,0-17.111-7.834-17.111-18.55c0-10.782,6.854-18.551,15.996-18.551c8.807,0,15.606,7.099,15.606,18.685
			C230.554,46.622,230.442,47.761,230.387,48.631 M207.59,42.537h14.771c-0.613-4.554-3.455-7.5-7.357-7.5
			C211.046,35.037,208.203,37.916,207.59,42.537"/>
		<path d="M254.702,58.848c0.685,2.152-0.591,4.426-2.778,4.984c-1.054,0.271-2.178,0.403-3.312,0.403
			c-7.079,0-11.203-4.353-11.203-12.925V36.509h-4.626v-8.036h4.626V19.7h8.695v8.773h7.468v8.036h-7.468v14.667
			c0,3.08,1.393,4.755,3.733,4.755c0.184,0,0.366-0.009,0.55-0.028c1.884-0.195,3.661,0.891,4.235,2.697L254.702,58.848z"/>
		<path d="M287.126,43.14v20.56h-8.138v-4.486c-1.616,3.281-4.737,5.022-9.14,5.022c-7.023,0-11.204-4.688-11.204-10.916
			c0-6.362,3.734-10.782,12.876-10.782h6.911c0-4.487-2.23-7.099-6.911-7.099c-1.785,0-3.605,0.401-5.242,1.121
			c-2.017,0.886-4.367-0.04-5.233-2.065c-0.811-1.895-0.038-4.112,1.794-5.058c2.908-1.501,6.395-2.302,9.852-2.302
			C281.831,27.134,287.126,32.224,287.126,43.14 M278.432,52.314v-3.684h-5.965c-4.068,0-5.351,1.809-5.351,4.22
			c0,2.61,1.84,4.353,4.905,4.353C274.92,57.203,277.428,55.597,278.432,52.314"/>
	</g>
</g>
</svg>
